# xmcd
#
# Track frame offsets:
#	150
#	36338
#	62414
#	88680
#	118966
#	189171
#	203634
#	216318
#	232578
#
# Disc length: 3198 seconds
#
# Revision: 1
# Processed by: cddbd v1.5.2PL0 Copyright (c) Steve Scherf et al.
# Submitted via: audiograbber 1.83.01
#
DISCID=740c7c09
DTITLE=NRPS - 73-03-18 Felt Forum, Madison Square Garden, New York NY
DYEAR=1900
DGENRE=
TTITLE0=Glendale Train
TTITLE1=Last Lonely Eagle
TTITLE2=Louisiana Lady
TTITLE3=Honky Tonk Women
TTITLE4=Willie and The Hand Jive
TTITLE5=DJ Conversation and Tuning
TTITLE6=The Race Is On
TTITLE7=Johnny B Goode
TTITLE8=Outtro and DJ Conversation
EXTD=
EXTT0=
EXTT1=
EXTT2=
EXTT3=
EXTT4=
EXTT5=
EXTT6=
EXTT7=
EXTT8=
PLAYORDER=
